<svg aria-hidden="true" style="position: absolute; width: 0; height: 0; overflow: hidden;" version="1.1"
    xmlns="http://www.w3.org/2000/svg" xmlns:xlink="http://www.w3.org/1999/xlink">
    <defs>
        <symbol id="icon-logo-light" viewBox="0 0 32 32">
            <path
                d="M22.13 0h-12.26l-9.87 9.87v12.26l9.87 9.87h12.26l9.87-9.87v-12.26l-9.87-9.87zM11.566 22.284l-6.323-6.323 6.323-6.323c2.39-2.39 6.323-2.39 8.713 0l6.323 6.323-6.323 6.323c-2.39 2.39-6.246 2.39-8.713 0z">
            </path>
        </symbol>

        <symbol id="icon-menu" viewBox="0 0 32 32">
            <path stroke-linejoin="round" stroke-linecap="round" stroke-miterlimit="4" stroke-width="1.6842"
                d="M28 13.333h-24"></path>
            <path stroke-linejoin="round" stroke-linecap="round" stroke-miterlimit="4" stroke-width="1.6842"
                d="M28 8h-24"></path>
            <path stroke-linejoin="round" stroke-linecap="round" stroke-miterlimit="4" stroke-width="1.6842"
                d="M28 18.667h-24"></path>
            <path stroke-linejoin="round" stroke-linecap="round" stroke-miterlimit="4" stroke-width="1.6842"
                d="M28 24h-24"></path>
        </symbol>

        <symbol id="icon-cross" viewBox="0 0 32 32">
            <path stroke-linejoin="round" stroke-linecap="round" stroke-miterlimit="4" stroke-width="1.6842"
                d="M24 8l-16 16"></path>
            <path stroke-linejoin="round" stroke-linecap="round" stroke-miterlimit="4" stroke-width="1.6842"
                d="M8 8l16 16"></path>
        </symbol>

<symbol id="icon-close-motiv" viewBox="0 0 32 32">
<path  stroke-linejoin="round" stroke-linecap="round" stroke-miterlimit="4" stroke-width="2.2857" d="M22.667 9.333l-13.333 13.333M9.333 9.333l13.333 13.333"></path>
</symbol>


        <symbol id="icon-instagram" viewBox="0 0 32 32">
            <path opacity="0.8"
                d="M28.716 10.756c-0.016-1.074-0.215-2.14-0.596-3.145-0.667-1.716-2.024-3.073-3.743-3.737-0.994-0.373-2.044-0.573-3.108-0.596-1.368-0.061-1.801-0.078-5.273-0.078s-3.916 0-5.274 0.078c-1.062 0.023-2.113 0.223-3.106 0.596-1.719 0.664-3.078 2.021-3.743 3.737-0.374 0.992-0.576 2.041-0.596 3.101-0.061 1.367-0.080 1.8-0.080 5.265s0 3.909 0.080 5.265c0.021 1.062 0.222 2.109 0.596 3.104 0.667 1.714 2.024 3.071 3.744 3.735 0.989 0.386 2.040 0.605 3.106 0.639 1.369 0.061 1.803 0.079 5.274 0.079s3.916 0 5.274-0.079c1.062-0.021 2.112-0.222 3.107-0.595 1.719-0.666 3.076-2.022 3.743-3.737 0.374-0.993 0.574-2.041 0.596-3.104 0.061-1.365 0.080-1.798 0.080-5.265-0.003-3.466-0.003-3.906-0.082-5.264zM15.989 22.532c-3.631 0-6.572-2.936-6.572-6.561s2.941-6.561 6.572-6.561c3.628 0 6.572 2.936 6.572 6.561s-2.944 6.561-6.572 6.561zM22.823 10.697c-0.849 0-1.532-0.684-1.532-1.53s0.684-1.53 1.532-1.53c0.846 0 1.531 0.684 1.531 1.53s-0.685 1.53-1.531 1.53z">
            </path>
            <path opacity="0.8"
                d="M15.993 19.976c2.211 0 4.004-1.793 4.004-4.004s-1.793-4.004-4.004-4.004c-2.211 0-4.004 1.793-4.004 4.004s1.793 4.004 4.004 4.004z">
            </path>
        </symbol>

        <symbol id="icon-facebook" viewBox="0 0 32 32">
            <path opacity="0.8"
                d="M19.519 4.64c0.24 0 0.48 0 0.96 0v3.6c-0.24 0-0.72 0-1.2 0s-0.96 0-1.2 0.24c-0.24 0.24-0.24 0.48-0.24 1.040 0 0.48 0 0.8 0 1.28h2.64v3.040h-2.64v13.2h-4.080v-13.28h-2.16v-3.040h2.16v-1.040c0-1.76 0.24-3.040 0.72-3.6 0.72-1.040 2.16-1.52 4.32-1.52 0.24 0.080 0.48 0.080 0.72 0.080z">
            </path>
        </symbol>

        <symbol id="icon-youtube" viewBox="0 0 32 32">
            <path opacity="0.8"
                d="M24.241 6c-1.36-0.080-4.16-0.16-8.4-0.16h-0.56c-4.080 0-6.8 0.080-8.16 0.24-1.84 0.16-3.12 0.64-3.84 1.28-0.64 0.56-1.12 1.6-1.28 2.96-0.080 0.88-0.16 2.72-0.16 5.52v0.4c0 2.64 0.080 4.48 0.24 5.36 0.24 1.28 0.64 2.24 1.44 2.8 0.8 0.64 2.16 1.040 4.080 1.2 1.36 0.080 4.16 0.16 8.4 0.16h0.56c4.080 0 6.8-0.080 8.16-0.24 1.84-0.16 3.12-0.64 3.84-1.28 0.64-0.56 1.12-1.6 1.28-2.96 0.080-0.88 0.16-2.72 0.16-5.52v-0.4c0-2.64-0.080-4.48-0.24-5.36-0.24-1.28-0.64-2.24-1.44-2.8-0.8-0.64-2.16-1.040-4.080-1.2zM21.121 15.839l-8.8 5.28v-10.56l8.8 5.28z">
            </path>
        </symbol>

        <symbol id="icon-search" viewBox="0 0 32 32">
            <path fill="none" stroke-linejoin="round" stroke-linecap="round" stroke-miterlimit="4" stroke-width="2.88"
                d="M14.667 25.333c0.039 0 0.085 0.001 0.131 0.001 5.891 0 10.667-4.776 10.667-10.667s-4.776-10.667-10.667-10.667c-0.046 0-0.092 0-0.138 0.001l0.007-0c-5.835 0.074-10.537 4.821-10.537 10.666s4.702 10.593 10.53 10.666l0.007 0zM28 28l-5.8-5.8">
            </path>
        </symbol>

        <symbol id="icon-paginateLeft" viewBox="0 0 17 32">
            <path opacity="0.3"
                d="M16.309 0.843c0.239 0.265 0.431 0.58 0.561 0.926 0.125 0.325 0.198 0.701 0.198 1.093s-0.073 0.769-0.205 1.115l0.007-0.021c-0.13 0.348-0.32 0.661-0.561 0.928l-10.059 11.117 10.057 11.119c0.484 0.538 0.755 1.263 0.755 2.022 0 0.757-0.271 1.485-0.755 2.020-0.449 0.508-1.101 0.829-1.827 0.836h-0.001c-0.685 0-1.344-0.301-1.826-0.836l-11.895-13.152c-0.236-0.261-0.426-0.57-0.554-0.908l-0.007-0.020c-0.125-0.325-0.198-0.701-0.198-1.093s0.073-0.769 0.205-1.115l-0.007 0.021c0.13-0.348 0.32-0.661 0.561-0.928l11.898-13.154c0.983-1.088 2.643-1.088 3.654 0.030z">
            </path>
        </symbol>

        <symbol id="icon-paginateRight" viewBox="0 0 17 32">
            <path opacity="0.3"
                d="M0.757 0.843c-0.236 0.261-0.426 0.568-0.554 0.906l-0.007 0.020c-0.125 0.325-0.198 0.701-0.198 1.093s0.073 0.769 0.205 1.115l-0.007-0.021c0.13 0.348 0.32 0.661 0.561 0.928l10.059 11.117-10.059 11.121c-0.469 0.529-0.755 1.23-0.755 1.997 0 0.009 0 0.018 0 0.026v-0.001c0 0.757 0.271 1.485 0.755 2.020 0.484 0.533 1.143 0.836 1.828 0.836s1.344-0.301 1.826-0.836l11.898-13.154c0.239-0.267 0.431-0.58 0.561-0.928 0.125-0.325 0.198-0.701 0.198-1.093s-0.073-0.769-0.205-1.115l0.007 0.021c-0.135-0.358-0.325-0.667-0.563-0.931l0.002 0.003-11.898-13.154c-0.983-1.088-2.641-1.088-3.654 0.030z">
            </path>
        </symbol>

        <symbol id="icon-sucess-sign" viewBox="0 0 32 32">
            <path fill="#3cbc81" style="fill: var(--color1, #3cbc81)"
                d="M13.76 18.88l-3.48-3.48c-0.293-0.293-0.66-0.433-1.099-0.419-0.441 0.013-0.807 0.166-1.101 0.459s-0.44 0.667-0.44 1.12c0 0.453 0.147 0.827 0.44 1.12l4.56 4.56c0.293 0.293 0.667 0.44 1.12 0.44s0.827-0.147 1.12-0.44l9.080-9.080c0.293-0.293 0.434-0.66 0.421-1.101-0.014-0.439-0.168-0.806-0.461-1.099s-0.667-0.44-1.12-0.44c-0.453 0-0.827 0.147-1.12 0.44l-7.92 7.92zM16 32c-2.213 0-4.293-0.42-6.24-1.261s-3.64-1.979-5.080-3.419-2.58-3.133-3.419-5.080c-0.841-1.947-1.261-4.027-1.261-6.24s0.42-4.293 1.261-6.24c0.839-1.947 1.979-3.64 3.419-5.080s3.133-2.58 5.080-3.421c1.947-0.839 4.027-1.259 6.24-1.259s4.293 0.42 6.24 1.259c1.947 0.841 3.64 1.981 5.080 3.421s2.58 3.133 3.419 5.080c0.84 1.947 1.261 4.027 1.261 6.24s-0.42 4.293-1.261 6.24c-0.84 1.947-1.979 3.64-3.419 5.080s-3.133 2.58-5.080 3.419c-1.947 0.84-4.027 1.261-6.24 1.261zM16 28.8c3.547 0 6.567-1.246 9.061-3.739 2.493-2.494 3.739-5.514 3.739-9.061s-1.246-6.567-3.739-9.061c-2.494-2.493-5.514-3.739-9.061-3.739s-6.566 1.246-9.059 3.739c-2.494 2.494-3.741 5.514-3.741 9.061s1.247 6.567 3.741 9.061c2.493 2.493 5.513 3.739 9.059 3.739z">
            </path>
        </symbol>

        <symbol id="icon-error-sign" viewBox="0 0 32 32">
            <path fill="#da1414" style="fill: var(--color2, #da1414)"
                d="M14.4 20.8h3.2v3.2h-3.2v-3.2zM14.4 8h3.2v9.6h-3.2v-9.6zM15.984 0c-8.832 0-15.984 7.168-15.984 16s7.152 16 15.984 16c8.848 0 16.016-7.168 16.016-16s-7.168-16-16.016-16zM16 28.8c-7.072 0-12.8-5.728-12.8-12.8s5.728-12.8 12.8-12.8c7.072 0 12.8 5.728 12.8 12.8s-5.728 12.8-12.8 12.8z">
            </path>

        </symbol>

        <symbol id="icon-chevron-down-black" viewBox="0 0 32 32">
            <path fill="none" stroke="#f3f3f3" stroke-linejoin="round" stroke-linecap="round" stroke-miterlimit="4"
                stroke-width="2.88" d="M8 20l8-8 8 8"></path>
        </symbol>
        <symbol id="icon-chevron-down" viewBox="0 0 32 32">
            <path fill="none" stroke="#f3f3f3" style="stroke: var(--text-color)" stroke-linejoin="round"
                stroke-linecap="round" stroke-miterlimit="4" stroke-width="2.88" d="M8 20l8-8 8 8"></path>
        </symbol>

        <symbol id="icon-motiv-vector" viewBox="0 0 36 32">
            <path fill="#d9d9d9" style="fill: var(--color1, #d9d9d9)" opacity="0.138"
                d="M0.145 6.198c0-1.426 0.042-3.993 0.48-4.827 0.746-1.42 2.731-1.333 4.334-1.258l26.608 1.247c0.161 0.008 0.32 0.030 0.477 0.066 1.586 0.367 2.804 1.64 3.098 3.241l0.029 0.155c0.168 0.915 0.253 1.841 0.253 2.772v14.947c0 1.17-0.404 2.308-1.144 3.215-0.663 0.813-1.656 1.285-2.705 1.285h-6.067c-0.148 0-0.322 0.025-0.507 0.067-1.112 0.25-1.984 1.070-2.663 1.986-0.151 0.203-0.317 0.395-0.487 0.582-0.785 0.867-1.833 2.192-4.122 2.192-0.761 0-1.464-0.216-2.034-0.487-0.906-0.431-1.551-1.236-2.144-2.045-1.036-1.412-2.766-2.12-4.514-2.017-1.86 0.11-4.060 0.102-5.66-0.278-2.586-0.614-3.36-3.968-3.232-5.485v-15.358z">
            </path>
        </symbol>

    </defs>
</svg>